<svg width="1478" height="531" viewBox="0 0 1478 531" fill="none" xmlns="http://www.w3.org/2000/svg">
<g clip-path="url(#clip0_31_25)">
<rect width="1478" height="531" transform="matrix(-1 0 0 1 1478 0)" fill="white" fill-opacity="0.11"/>
<ellipse cx="8.18182" cy="7.5" rx="8.18182" ry="7.5" transform="matrix(-1 0 0 1 1370 89)" fill="#B2EEDA"/>
<ellipse cx="8.18182" cy="7.5" rx="8.18182" ry="7.5" transform="matrix(-1 0 0 1 747.364 16)" fill="#B2EEDA"/>
<ellipse cx="8.18182" cy="7.5" rx="8.18182" ry="7.5" transform="matrix(-1 0 0 1 8.36365 362)" fill="#B2EEDA"/>
<ellipse cx="8.18182" cy="7.5" rx="8.18182" ry="7.5" transform="matrix(-1 0 0 1 65.3636 246)" fill="#FFFFF0"/>
<ellipse cx="8.18182" cy="7.5" rx="8.18182" ry="7.5" transform="matrix(-1 0 0 1 49.3636 123)" fill="#B2EEDA"/>
<ellipse cx="8.18182" cy="7.5" rx="8.18182" ry="7.5" transform="matrix(-1 0 0 1 1470.36 176)" fill="#B2EEDA"/>
<g filter="url(#filter0_f_31_25)">
<circle cx="40" cy="40" r="40" transform="matrix(-1 0 0 1 1335 123)" fill="#E6F9F1"/>
</g>
<path d="M779 446.413C764.917 446.413 753.5 457.829 753.5 471.913C753.5 485.996 764.917 497.413 779 497.413C793.083 497.413 804.5 485.996 804.5 471.913C804.5 457.829 793.083 446.413 779 446.413Z" stroke="#00C48C"/>
<circle cx="9.5" cy="9.5" r="9" transform="matrix(-1 0 0 1 657 228)" stroke="#00C48C"/>
<circle cx="29" cy="29" r="29" transform="matrix(-1 0 0 1 1499 293)" fill="#D0F5E3"/>
<circle cx="16.5" cy="16.5" r="16.5" transform="matrix(-1 0 0 1 1335 305)" fill="#00C48C"/>
<circle cx="16.5" cy="16.5" r="16.5" transform="matrix(-1 0 0 1 707 31)" fill="#00C48C"/>
<g filter="url(#filter1_f_31_25)">
<circle cx="24" cy="24" r="24" transform="matrix(-1 0 0 1 1088 298)" fill="#FFFDD0"/>
</g>
<g filter="url(#filter2_f_31_25)">
<circle cx="24" cy="24" r="24" transform="matrix(-1 0 0 1 674 338)" fill="#C3F0DA"/>
</g>
</g>
<defs>
<filter id="filter0_f_31_25" x="1235" y="103" width="120" height="120" filterUnits="userSpaceOnUse" color-interpolation-filters="sRGB">
<feFlood flood-opacity="0" result="BackgroundImageFix"/>
<feBlend mode="normal" in="SourceGraphic" in2="BackgroundImageFix" result="shape"/>
<feGaussianBlur stdDeviation="10" result="effect1_foregroundBlur_31_25"/>
</filter>
<filter id="filter1_f_31_25" x="1025" y="283" width="78" height="78" filterUnits="userSpaceOnUse" color-interpolation-filters="sRGB">
<feFlood flood-opacity="0" result="BackgroundImageFix"/>
<feBlend mode="normal" in="SourceGraphic" in2="BackgroundImageFix" result="shape"/>
<feGaussianBlur stdDeviation="7.5" result="effect1_foregroundBlur_31_25"/>
</filter>
<filter id="filter2_f_31_25" x="596" y="308" width="108" height="108" filterUnits="userSpaceOnUse" color-interpolation-filters="sRGB">
<feFlood flood-opacity="0" result="BackgroundImageFix"/>
<feBlend mode="normal" in="SourceGraphic" in2="BackgroundImageFix" result="shape"/>
<feGaussianBlur stdDeviation="15" result="effect1_foregroundBlur_31_25"/>
</filter>
<clipPath id="clip0_31_25">
<rect width="1478" height="531" fill="white" transform="matrix(-1 0 0 1 1478 0)"/>
</clipPath>
</defs>
</svg>
